<svg viewBox="0 0 200 200" xmlns="http://www.w3.org/2000/svg">
  <path fill="#FF0066" d="M29.7,-52.8C42,-44.3,58.1,-43.5,65.7,-36C73.4,-28.5,72.6,-14.3,65.4,-4.2C58.2,5.9,44.5,11.9,39,23C33.4,34.1,35.9,50.3,30.8,59.5C25.6,68.7,12.8,70.9,1,69.1C-10.8,67.4,-21.5,61.6,-34.7,57.1C-47.9,52.5,-63.6,49.1,-65.9,39.8C-68.2,30.5,-57.1,15.3,-54.6,1.4C-52.1,-12.4,-58.3,-24.8,-56.2,-34.5C-54.2,-44.2,-43.9,-51.2,-33.2,-60.6C-22.4,-70.1,-11.2,-81.9,-1.3,-79.7C8.7,-77.5,17.3,-61.2,29.7,-52.8Z" transform="translate(100 100)" />
</svg>